# xmcd
#
# Track frame offsets: 
#        150
#        21112
#        47219
#        70000
#        93052
#        113250
#        135743
#        164529
#        180972
#        203061
#
# Disc length: 3018 seconds
#
# Revision: 1
# Processed by: cddbd v1.5.2PL0 Copyright (c) Steve Scherf et al.
# Submitted via: ExactAudioCopy v1.2
#
DISCID=750bc80a
DTITLE=大先生室屋ストリングス - Anison Strings～弦楽四重奏で聞くランティスの歴史
DYEAR=2014
DGENRE=Acoustic
TTITLE0=Can Do
TTITLE1=僕らのLIVE 君とのLIFE
TTITLE2=GONG
TTITLE3=翼はPleasure 
TTITLE4=Sparkling Daydream
TTITLE5=サクラサクミライコイユメ
TTITLE6=境界の彼方
TTITLE7=ハレ晴レユカイ
TTITLE8=Snow halation
TTITLE9=HERO
EXTD=
EXTT0=
EXTT1=
EXTT2=
EXTT3=
EXTT4=
EXTT5=
EXTT6=
EXTT7=
EXTT8=
EXTT9=
PLAYORDER=
